# xmcd CD database file
# Copyright (C) 1996 Ti Kan
#
# Track frame offsets:
# 	150
# 	12007
# 	26227
# 	41317
# 	53290
# 	68305
# 	79990
# 	93875
# 	107655
# 	120862
# 	133847
# 	149292
#
# Disc length: 2164 seconds
#
# Revision: 1
# Processed by: cddbd v1.4b41PL1 Copyright (c) Steve Scherf et al.
# Submitted via: DiscPlay 3.4.1
#
DISCID=8808720c
DTITLE=Roy Clark - Great Picks and New Tricks
DYEAR=1900
DGENRE=
TTITLE0=If I Had To Do It All Over Again
TTITLE1=Tips Of My Fingers
TTITLE2=Something Average
TTITLE3=I Never Picked Cotton
TTITLE4=Yesterday When I Was Young
TTITLE5=Thank God And Greyhound
TTITLE6=Honeymoon Feeling
TTITLE7=I'd Fall In Love Tonight
TTITLE8=Come Live With Me
TTITLE9=Heart To Heart
TTITLE10=Somewhere Between Love And Tomorrow
TTITLE11=Another Lonely Night With You
EXTD=
EXTT0=
EXTT1=
EXTT2=
EXTT3=
EXTT4=
EXTT5=
EXTT6=
EXTT7=
EXTT8=
EXTT9=
EXTT10=
EXTT11=
PLAYORDER=
